<?xml version="1.0" standalone="no"?>
<!DOCTYPE svg PUBLIC "-//W3C//DTD SVG 20010904//EN"
 "http://www.w3.org/TR/2001/REC-SVG-20010904/DTD/svg10.dtd">
<svg version="1.0" xmlns="http://www.w3.org/2000/svg"
 width="265.000000pt" height="265.000000pt" viewBox="0 0 265.000000 265.000000"
 preserveAspectRatio="xMidYMid meet">
<metadata>
Created by potrace 1.11, written by Peter Selinger 2001-2013
</metadata>
<g transform="translate(0.000000,265.000000) scale(0.100000,-0.100000)"
fill="#000000" stroke="none">
<path d="M1355 2606 c-193 -32 -371 -104 -519 -211 -53 -37 -109 -67 -165 -87
-154 -54 -239 -106 -349 -212 -279 -267 -380 -696 -266 -1132 112 -435 478
-799 914 -911 464 -119 936 28 1286 401 203 215 302 455 309 746 1 88 7 138
19 170 81 211 74 495 -16 675 -131 262 -418 466 -768 546 -111 26 -336 33
-445 15z m72 -372 c36 -27 96 -114 117 -173 15 -43 22 -49 94 -83 43 -21 106
-61 141 -89 l63 -51 80 11 c146 20 240 -21 283 -122 19 -45 10 -96 -28 -159
-26 -44 -93 -118 -105 -118 -4 0 -7 -45 -7 -100 l0 -100 30 -18 c39 -24 94
-87 111 -128 27 -63 13 -128 -39 -190 -36 -43 -102 -72 -181 -80 -64 -7 -67
-8 -100 -53 -19 -25 -65 -75 -102 -111 l-68 -65 -8 34 c-9 32 -7 36 69 114
l78 81 -55 7 c-30 4 -78 10 -106 14 l-50 7 -21 -108 c-11 -60 -19 -111 -17
-113 1 -1 13 4 26 13 12 9 32 16 43 16 18 -1 17 -3 -7 -21 -34 -25 -36 -47 -6
-58 21 -7 18 -11 -35 -41 -31 -17 -57 -36 -57 -42 0 -25 -58 -123 -97 -162
-155 -157 -343 -92 -372 129 -7 55 -1 51 -143 114 -38 16 -83 42 -102 56 -31
24 -40 26 -95 19 -118 -13 -196 19 -237 97 -29 57 -10 161 45 238 17 24 18 31
5 91 -7 36 -14 119 -14 185 l0 121 -39 38 c-60 58 -104 154 -104 224 0 31 5
68 13 82 51 100 181 135 311 84 l39 -16 57 52 c35 31 96 70 155 98 l96 47 7
50 c14 100 42 140 130 189 43 24 164 18 202 -10z"/>
<path d="M1247 2160 c-25 -20 -67 -94 -67 -119 0 -10 10 -11 34 -7 19 4 80 7
135 7 l101 1 -27 50 c-15 27 -38 58 -51 69 -33 25 -92 25 -125 -1z"/>
<path d="M1230 1950 c-115 -25 -158 -42 -253 -97 -110 -65 -227 -180 -266
-263 -29 -60 -59 -166 -50 -173 34 -28 181 -127 188 -127 5 0 40 26 79 59 144
120 332 243 520 339 105 54 99 35 60 184 l-20 76 -43 11 c-59 15 -114 12 -215
-9z"/>
<path d="M1596 1873 c14 -64 25 -103 28 -103 19 0 115 45 109 51 -13 13 -126
79 -135 79 -5 0 -6 -12 -2 -27z"/>
<path d="M1923 1774 c-8 -4 0 -23 24 -55 20 -28 50 -78 68 -111 l32 -60 31 43
c59 79 51 138 -21 173 -33 15 -107 21 -134 10z"/>
<path d="M538 1745 c-38 -21 -61 -69 -54 -110 7 -38 85 -151 95 -138 4 4 20
37 34 73 15 36 45 87 67 115 26 32 36 53 29 60 -17 17 -141 17 -171 0z"/>
<path d="M1735 1718 c-44 -17 -84 -34 -88 -38 -5 -4 -1 -104 8 -221 12 -150
14 -258 10 -359 l-7 -146 117 -23 c64 -12 121 -19 125 -14 13 14 67 165 78
218 6 28 16 76 23 107 14 69 7 220 -14 269 -11 27 -163 240 -170 239 -1 -1
-38 -15 -82 -32z"/>
<path d="M1430 1584 c-152 -81 -515 -327 -505 -343 17 -29 628 -272 643 -257
13 13 20 238 12 361 -18 254 -22 295 -34 295 -6 0 -58 -25 -116 -56z"/>
<path d="M643 1239 c12 -142 10 -140 78 -73 l58 58 -57 41 c-93 67 -86 69 -79
-26z"/>
<path d="M760 1105 l-74 -74 24 -53 c70 -153 159 -248 294 -312 170 -81 294
-107 421 -86 39 6 73 15 78 19 9 9 47 222 47 263 0 24 -6 28 -57 43 -114 33
-351 129 -495 201 -81 41 -151 74 -156 74 -4 0 -41 -34 -82 -75z"/>
<path d="M2035 1103 c-9 -32 -30 -88 -45 -125 l-29 -68 35 0 c82 0 144 55 144
129 0 33 -7 49 -36 81 -20 22 -40 40 -44 40 -5 0 -16 -26 -25 -57z"/>
<path d="M594 884 c-13 -46 -14 -60 -3 -86 14 -35 60 -58 114 -58 l35 0 -34
48 c-18 26 -46 71 -61 100 -15 28 -29 52 -31 52 -2 0 -11 -25 -20 -56z"/>
<path d="M1170 494 c0 -24 36 -103 57 -126 28 -31 69 -32 117 -4 40 23 116
100 116 116 0 4 -22 5 -49 2 -46 -4 -193 12 -227 25 -9 3 -14 -2 -14 -13z"/>
</g>
</svg>
